PathFileType	4	(X/Y/Z)	Patient4_TMGait_0pt3_03_right_21.trc.trc
DataRate	CameraRate	NumFrames	NumMarkers	Units	OrigDataRate	OrigDataStartFrame	OrigNumFrames
53.639846743295	53.639846743295	4	33	mm	53.639846743295	36	       141
Frame#	Time	Sacral			L.Shoulder			Chest			R.Shoulder			Neck			R.ASIS			L.ASIS			R.Thigh.Superior			R.Thigh.Lateral			R.Thigh.Inferior			R.Patella			L.Thigh.Superior			L.Thigh.Lateral			L.Thigh.Inferior			L.Patella			L.Shank.Superior			L.Shank.Lateral			L.Shank.Inferior			R.Shank.Superior			R.Shank.Lateral			R.Shank.Inferior			R.Heel			R.Midfoot.Superior			R.Midfoot.Lateral			R.Toe			L.Heel			L.Midfoot.Lateral			L.Midfoot.Superior			L.Toe			L.Elbow			L.Wrist			R.Elbow			R.Wrist			
		X1	Y1	Z1	X2	Y2	Z2	X3	Y3	Z3	X4	Y4	Z4	X5	Y5	Z5	X6	Y6	Z6	X7	Y7	Z7	X8	Y8	Z8	X9	Y9	Z9	X10	Y10	Z10	X11	Y11	Z11	X12	Y12	Z12	X13	Y13	Z13	X14	Y14	Z14	X15	Y15	Z15	X16	Y16	Z16	X17	Y17	Z17	X18	Y18	Z18	X19	Y19	Z19	X20	Y20	Z20	X21	Y21	Z21	X22	Y22	Z22	X23	Y23	Z23	X24	Y24	Z24	X25	Y25	Z25	X26	Y26	Z26	X27	Y27	Z27	X28	Y28	Z28	X29	Y29	Z29	X30	Y30	Z30	X31	Y31	Z31	X32	Y32	Z32	X33	Y33	Z33	

36	39.882500000000	735.212768164938	1015.455067985486	504.527010920560	955.156516286967	1433.675082435754	350.641377029647	1026.434742432874	1366.889563836728	527.569582699579	917.794770940959	1446.058778479625	684.130071416888	900.389742784935	1497.140329012652	502.370222412559	941.606232658726	942.514939119076	656.760837766306	969.291523123382	960.851691149459	384.536845073710	989.332476960421	743.717715179397	625.563977201387	906.927822776531	633.806466856313	678.708999466978	990.044480812267	583.540680531363	602.473694225273	993.559674719424	497.070610230193	608.062806332292	975.827037130499	731.171861665633	403.479579308623	876.005142454530	633.056749812318	322.310988987584	941.425166378026	538.570116069648	384.461824424340	929.012317924373	463.832266937991	383.664955818841	876.295125832636	405.259268667160	369.908965426913	755.542370531738	331.312617053067	307.420922640190	765.153198255986	202.353517643777	364.742951452876	966.723872576175	407.716871645356	613.879782612538	896.685684264180	304.124161327502	677.767583746308	938.091957341330	208.680098019680	613.990935856119	803.073131145419	43.932932873762	589.408295629211	975.781297953232	97.500872883222	620.169969556736	888.735514912078	37.396517671595	660.927593174973	1096.381941312282	44.221386976600	644.180512482454	594.562094421088	83.198923608050	388.648088605898	670.612738658959	60.442687425053	314.296005575478	763.860342028428	104.061375979408	344.067999676941	877.376604899000	36.662322411934	324.114525420229	1025.278242012840	1093.196885439652	224.675608642964	1273.502881442138	1013.792204183857	223.971900209842	784.263605536087	1121.296085823367	781.054273296924	770.064898449633	861.317372596940	797.929562402167	
37	39.901142857143	734.673345526359	1015.610103889244	510.346553042144	953.099662305071	1433.749332797213	354.150513441587	1025.889584442105	1367.222279723041	530.595426013023	918.450861576496	1446.476661102064	687.862141210408	899.661883785261	1497.492884487692	505.919444378723	942.187547810629	942.723281358364	661.184837053291	967.852826271424	961.190786666953	388.753734383395	988.506894466329	743.270763579377	629.466657169079	905.281646493838	633.501767732932	682.055535337727	987.882728975275	582.990453987509	605.518267220403	990.849466083243	496.411220664164	610.539248542610	978.360406241993	732.700757121395	407.057148054131	880.940565163577	632.972798376681	325.765826580232	949.162976722455	539.162831756808	387.169671787852	937.659433298613	463.055037556978	385.278727536894	882.629084518696	405.229522678855	371.594046778465	759.447319430474	335.236825860941	309.258865917295	766.148394611137	205.368776683975	364.811453996067	963.449279435164	407.279886047668	615.782787330372	892.907466679860	303.713967533166	679.044354702580	933.644807012190	208.412055577761	614.676194543494	797.746019567244	43.945945806225	589.463675586960	970.448542720379	97.473694328133	620.329128743734	883.408291259326	37.391518138988	660.948825194201	1091.062501687198	44.017952358573	644.343236691390	592.250703189578	91.828569077621	388.240969298522	667.236290204725	65.720926802978	314.033369395738	762.152855228819	105.780350293463	343.385728659899	872.261135790413	36.181427575266	324.106716874039	1020.093100706503	1091.801784326385	229.573742589311	1266.413142176139	1005.989025105230	228.368073141863	789.916618866906	1119.515510214205	786.690364853513	780.139623929400	859.411322163160	803.960135635034	
38	39.919785714286	733.901101848708	1015.527840676917	516.068383384521	950.704940917753	1433.614974139837	357.469838649880	1025.097236954830	1367.341090092907	533.377686772907	918.924217100117	1446.609007773353	691.419455512930	898.701814095337	1497.638986573350	509.309037858918	942.692261304203	942.731318912072	665.335989299690	966.084746824078	961.365766105369	392.692093466392	987.820794658848	742.784902001639	632.906286960634	904.033097385802	633.058239051394	685.136663312955	986.065953678727	582.384303036005	608.212868744397	988.555335252450	495.588097543974	612.784657932154	981.059135725469	734.360076248279	410.495517259093	886.393944165324	632.833664400562	329.114604553071	957.488247419199	539.948885208716	390.000464115191	946.925535622182	462.451809062684	387.017944689283	889.700503786954	405.311524761159	373.305295728648	764.194364356872	339.451329941774	311.104139154775	767.826618446543	208.772018418680	364.867724201045	960.459193951193	406.685909254364	617.505111783709	889.313080880645	303.238999658596	680.173272831723	929.282368755560	208.042970178406	615.251491385368	792.365993931096	43.967942196452	589.476811785705	965.068986587235	97.414451497570	620.420704636114	878.014966383657	37.392427827219	660.942527771342	1085.682290240556	43.797853972626	644.468815642249	590.718357789885	101.468144224323	387.850505128661	664.339585188619	71.816729837484	313.773157431912	760.904581154448	107.826221112730	342.695741907361	867.136050414793	35.541397665802	324.077096013237	1014.437026604802	1090.097905879498	234.519770837092	1258.269987429754	996.886759116788	232.765206009025	795.896542015587	1117.302370781540	792.054363056466	790.910791829932	857.132207870984	809.674118999686	
39	39.938428571429	732.913204808624	1015.175735958149	521.676567671197	947.936010877822	1433.296623922132	360.626661657117	1024.030334918062	1367.241423917501	535.923557430404	919.185845687113	1446.410865187617	694.827706743301	897.467823671398	1497.562426136073	512.587856893815	943.163056004981	942.532801487433	669.154166872427	964.005652102092	961.380230097350	396.300741704774	987.368639914269	742.253575796850	635.848441297048	903.301983061057	632.454875612555	687.915249119097	984.728191778288	581.711102384623	610.514545440729	986.836950146753	494.568111939367	614.755829093867	983.929318184142	736.181383837703	413.830652606674	892.399467772912	632.683674281853	332.377910526588	966.366627092459	540.993306657078	393.033264824279	956.796659802655	462.085938276888	388.969457659001	897.506187177353	405.539823814821	375.105490142557	769.800463293378	343.976182784415	313.013156123610	770.214304738813	212.598866743112	364.984806701586	957.868309478899	405.903988779537	619.013216893331	885.991155504194	302.699492936721	681.146195522100	925.035869919324	207.555324173305	615.707171233265	786.917021862838	43.995878406747	589.461947077764	959.627866972319	97.329509151374	620.459225399843	872.541643576261	37.398013698486	660.923794297381	1080.229239224447	43.572619494772	644.572116365778	590.073896468787	112.156134293453	387.567956426693	661.996766168043	78.815279303314	313.587045720648	760.131039139591	110.279326017390	342.065118681457	862.000864739159	34.719863764094	324.031409736503	1008.336296045759	1088.141359597523	239.512841321766	1248.924607467914	986.463419582652	237.171689720992	802.193681653947	1114.636450042871	797.149427341910	802.439589306770	854.478847835318	815.091988221939	
